<svg width="36" height="36" viewBox="0 0 36 36" fill="none" xmlns="http://www.w3.org/2000/svg">
<rect width="36" height="36" rx="16" fill="#3B71FE" fill-opacity="0.08"/>
<path d="M17.1667 15.5H24.6624C25.0757 15.5 25.2823 15.5 25.4036 15.6336C25.525 15.7671 25.5091 15.9772 25.4774 16.3972L24.9599 23.2557C24.8497 24.7157 24.7946 25.4457 24.3245 25.8895C23.8544 26.3333 23.1362 26.3333 21.6997 26.3333H17.9462C16.5097 26.3333 15.7915 26.3333 15.3214 25.8895C14.6219 25.2292 14.734 23.8911 14.6667 23" stroke="#3B71FE" stroke-width="1.5" stroke-linecap="round" stroke-linejoin="round"/>
<path d="M17.1667 15.4242V19.9697C17.1667 21.3982 17.1667 22.1124 16.6785 22.5562C16.1904 23 15.4047 23 13.8333 23C12.262 23 11.4763 23 10.9882 22.5562C10.5 22.1124 10.5 21.3982 10.5 19.9697V19.2121C10.5 17.0693 10.5 15.998 11.2322 15.3323C11.9645 14.6666 13.143 14.6666 15.5 14.6666H16.3333C16.7262 14.6666 16.9226 14.6666 17.0446 14.7776C17.1667 14.8885 17.1667 15.0671 17.1667 15.4242Z" stroke="#3B71FE" stroke-width="1.5" stroke-linecap="round" stroke-linejoin="round"/>
<path d="M23.8333 15.5C23.8333 12.2783 21.9584 9.66663 19.6455 9.66663C17.5357 9.66663 15.7903 11.8397 15.5 14.6666" stroke="#3B71FE" stroke-width="1.5" stroke-linecap="round" stroke-linejoin="round"/>
<path d="M10.5 19.6666H17.1667" stroke="#3B71FE" stroke-width="1.5" stroke-linecap="round" stroke-linejoin="round"/>
<path d="M17.1667 18.8333H24.6667" stroke="#3B71FE" stroke-width="1.5" stroke-linecap="round" stroke-linejoin="round"/>
</svg>
