<svg width="36" height="36" viewBox="0 0 36 36" fill="none" xmlns="http://www.w3.org/2000/svg">
<rect width="36" height="36" rx="16" fill="#3B71FE" fill-opacity="0.08"/>
<path d="M26.3334 22.5834H9.66675" stroke="#3B71FE" stroke-width="1.5" stroke-linecap="round" stroke-linejoin="round"/>
<path d="M26.3334 25.5V21.3333C26.3334 19.762 26.3334 18.9763 25.8453 18.4882C25.3571 18 24.5714 18 23.0001 18H13.0001C11.4287 18 10.6431 18 10.1549 18.4882C9.66675 18.9763 9.66675 19.762 9.66675 21.3333V25.5" stroke="#3B71FE" stroke-width="1.5" stroke-linecap="round" stroke-linejoin="round"/>
<path d="M17.1667 18V16.5111C17.1667 16.1939 17.119 16.0878 16.8748 15.9628C16.3662 15.7024 15.7489 15.5 15.0833 15.5C14.4178 15.5 13.8005 15.7024 13.2919 15.9628C13.0477 16.0878 13 16.1939 13 16.5111L13 18" stroke="#3B71FE" stroke-width="1.5" stroke-linecap="round"/>
<path d="M23.0002 18V16.5111C23.0002 16.1939 22.9525 16.0878 22.7083 15.9628C22.1997 15.7024 21.5824 15.5 20.9168 15.5C20.2513 15.5 19.634 15.7024 19.1254 15.9628C18.8812 16.0878 18.8335 16.1939 18.8335 16.5111L18.8335 18" stroke="#3B71FE" stroke-width="1.5" stroke-linecap="round"/>
<path d="M25.5 18V14.1338C25.5 13.5574 25.5 13.2693 25.3399 12.9971C25.1798 12.725 24.9516 12.5841 24.4953 12.3024C22.6557 11.1665 20.4161 10.5 18 10.5C15.5839 10.5 13.3443 11.1665 11.5047 12.3024C11.0484 12.5841 10.8202 12.725 10.6601 12.9971C10.5 13.2693 10.5 13.5574 10.5 14.1338V18" stroke="#3B71FE" stroke-width="1.5" stroke-linecap="round"/>
</svg>
