<svg width="36" height="36" viewBox="0 0 36 36" fill="none" xmlns="http://www.w3.org/2000/svg">
<rect width="36" height="36" rx="16" fill="#3276FF" fill-opacity="0.08"/>
<path d="M13.4166 12.1666L20.5 12.1666C22.0713 12.1666 22.857 12.1666 23.3451 12.6548C23.8333 13.1429 23.8333 13.9286 23.8333 15.5V18C23.8333 19.5713 23.8333 20.357 23.3451 20.8451C22.857 21.3333 22.0713 21.3333 20.5 21.3333L18 21.3333C16.4286 21.3333 15.6429 21.3333 15.1548 20.8451C14.6666 20.357 14.6666 19.5713 14.6666 18L14.6666 14.6666M13.4166 12.1666C12.7263 12.1666 12.1666 12.7263 12.1666 13.4166L12.1666 14.6666H14.6666M13.4166 12.1666C14.107 12.1666 14.6666 12.7263 14.6666 13.4166V14.6666M22.1666 21.3333C22.1666 22.9046 22.1666 23.6903 21.6785 24.1785C21.1903 24.6666 20.4046 24.6666 18.8333 24.6666H15.5C13.9286 24.6666 13.1429 24.6666 12.6548 24.1785C12.1666 23.6903 12.1666 22.9046 12.1666 21.3333L12.1666 17.1666" stroke="#3276FF" stroke-width="1.5" stroke-linecap="round" stroke-linejoin="round"/>
<path d="M26.3333 11.3334V12.1667C26.3333 12.9433 26.3333 13.3316 26.2064 13.6378C26.0373 14.0462 25.7128 14.3707 25.3044 14.5398C24.9981 14.6667 24.6099 14.6667 23.8333 14.6667M9.66663 11.3334V12.1667C9.66663 12.9433 9.66663 13.3316 9.79349 13.6378C9.96265 14.0462 10.2871 14.3707 10.6955 14.5398C11.0018 14.6667 11.3901 14.6667 12.1666 14.6667" stroke="#3276FF" stroke-width="1.5" stroke-linecap="round" stroke-linejoin="round"/>
</svg>
