<svg width="184" height="48" viewBox="0 0 184 48" fill="none" xmlns="http://www.w3.org/2000/svg">
<path d="M38.14 9.86016C40.0911 11.8051 41.6167 14.1344 42.62 16.7002L35.32 24.0002L16.7 5.38016C20.3222 3.96076 24.2797 3.62857 28.0878 4.4243C31.8959 5.22002 35.3893 7.1091 38.14 9.86016V9.86016ZM5.38 31.3002C6.33826 33.7549 7.77217 35.9961 9.59933 37.8949C11.4265 39.7937 13.6109 41.3127 16.027 42.3647C18.4431 43.4166 21.0432 43.9807 23.678 44.0245C26.3128 44.0684 28.9303 43.5911 31.38 42.6202L12.68 24.0002L5.38 31.3002Z" fill="#3276FF"/>
<path opacity="0.3" d="M16.7 5.38029L24 12.6803L5.38 31.3003C4.40905 28.8505 3.93178 26.2331 3.97563 23.5983C4.01948 20.9635 4.58357 18.3633 5.6355 15.9473C6.68743 13.5312 8.20645 11.3468 10.1053 9.51962C12.0041 7.69246 14.2453 6.25855 16.7 5.30029V5.38029ZM24 35.3803L31.3 42.6803C33.7547 41.722 35.9959 40.2881 37.8947 38.461C39.7936 36.6338 41.3126 34.4494 42.3645 32.0333C43.4164 29.6172 43.9805 27.0171 44.0244 24.3823C44.0682 21.7475 43.591 19.13 42.62 16.6803L24 35.3803Z" fill="#3276FF"/>
<path d="M61.896 32.9999V16.0319H73.872V18.7679H64.896V23.2319H72.696V25.9199H64.896V30.2639H73.872V32.9999H61.896Z" fill="#232E40"/>
<path d="M76.7319 32.9999V16.0319H80.8359L85.5399 24.5999L90.1959 16.0319H94.1799V32.9999H91.1799V19.8239L86.1159 28.9919H84.8439L79.7319 19.8239V32.9999H76.7319Z" fill="#232E40"/>
<path d="M111.802 32.9999V16.0319H114.802V23.2799H122.722V16.0319H125.698V32.9999H122.722V26.0159H114.802V32.9999H111.802Z" fill="#232E40"/>
<path d="M129.498 32.9999V16.0319H133.602L138.306 24.5999L142.962 16.0319H146.946V32.9999H143.946V19.8239L138.882 28.9919H137.61L132.498 19.8239V32.9999H129.498Z" fill="#232E40"/>
<path d="M158.028 33.1919C156.284 33.1919 154.796 32.8239 153.564 32.0879C152.348 31.3519 151.412 30.3279 150.756 29.0159C150.116 27.7039 149.796 26.2079 149.796 24.5279C149.796 22.8159 150.124 21.3119 150.78 20.0159C151.436 18.7039 152.38 17.6799 153.612 16.9439C154.844 16.1919 156.332 15.8159 158.076 15.8159C159.82 15.8159 161.3 16.1839 162.516 16.9199C163.748 17.6559 164.692 18.6799 165.348 19.9919C166.004 21.2879 166.332 22.7839 166.332 24.4799C166.332 26.1599 166.004 27.6559 165.348 28.9679C164.708 30.2799 163.764 31.3119 162.516 32.0639C161.284 32.8159 159.788 33.1919 158.028 33.1919ZM158.076 30.4079C159.292 30.4079 160.284 30.1279 161.052 29.5679C161.82 29.0079 162.38 28.2799 162.732 27.3839C163.1 26.4879 163.284 25.5359 163.284 24.5279C163.284 23.7599 163.18 23.0239 162.972 22.3199C162.78 21.6159 162.468 20.9839 162.036 20.4239C161.62 19.8639 161.084 19.4239 160.428 19.1039C159.772 18.7679 158.988 18.5999 158.076 18.5999C156.876 18.5999 155.884 18.8799 155.1 19.4399C154.332 19.9999 153.764 20.7279 153.396 21.6239C153.028 22.5199 152.844 23.4879 152.844 24.5279C152.844 25.5519 153.028 26.5119 153.396 27.4079C153.764 28.3039 154.332 29.0319 155.1 29.5919C155.884 30.1359 156.876 30.4079 158.076 30.4079Z" fill="#232E40"/>
<path d="M169.177 32.9999V16.0319H172.393L180.577 28.3919V16.0319H183.577V32.9999H180.433L172.177 20.7119V32.9999H169.177Z" fill="#232E40"/>
<path d="M108.942 32.9999V16.0319H96.9663V18.7679H105.942V23.2319H98.1423V25.9199H105.942V30.2639H96.9663V32.9999H108.942Z" fill="#232E40"/>
</svg>
