<svg width="24" height="24" viewBox="0 0 24 24" fill="none" xmlns="http://www.w3.org/2000/svg">
<g clip-path="url(#clip0_1_84)">
<path d="M12 14.4609C13.3591 14.4609 14.4609 13.3591 14.4609 12C14.4609 10.6409 13.3591 9.53906 12 9.53906C10.6409 9.53906 9.53906 10.6409 9.53906 12C9.53906 13.3591 10.6409 14.4609 12 14.4609Z" fill="#232E40"/>
<path d="M12 0.28125C5.52792 0.28125 0.28125 5.52792 0.28125 12C0.28125 18.4721 5.52792 23.7188 12 23.7188C18.4721 23.7188 23.7188 18.4721 23.7188 12C23.7188 5.52792 18.4721 0.28125 12 0.28125ZM19.2402 14.9784C19.184 16.0926 18.8709 17.1912 18.059 17.9945C17.2392 18.8055 16.1353 19.1076 15.0105 19.1633H8.98959C7.86459 19.1076 6.76087 18.8056 5.94108 17.9945C5.12911 17.1912 4.81608 16.0926 4.75983 14.9784V9.02156C4.81608 7.90744 5.12916 6.80878 5.94108 6.00544C6.76087 5.1945 7.86473 4.89234 8.98959 4.8367H15.0104C16.1354 4.89234 17.2391 5.19436 18.0589 6.00544C18.8709 6.80878 19.1839 7.90744 19.2402 9.02156L19.2402 14.9784Z" fill="#232E40"/>
<path d="M14.9344 6.19374C13.4678 6.15352 10.5325 6.15352 9.066 6.19374C8.30282 6.21469 7.43765 6.40468 6.8939 6.98546C6.32887 7.58916 6.11536 8.31853 6.0937 9.13449C6.05564 10.5666 6.0937 14.8651 6.0937 14.8651C6.1185 15.6809 6.32887 16.4104 6.8939 17.0141C7.43765 17.595 8.30282 17.7848 9.066 17.8058C10.5325 17.846 13.4678 17.846 14.9344 17.8058C15.6975 17.7848 16.5627 17.5949 17.1065 17.0141C17.6715 16.4104 17.885 15.681 17.9067 14.8651V9.13449C17.885 8.31853 17.6715 7.58916 17.1065 6.98546C16.5625 6.40449 15.6974 6.21469 14.9344 6.19374ZM12 15.8142C11.2456 15.8142 10.5081 15.5905 9.8808 15.1714C9.25352 14.7522 8.76461 14.1565 8.4759 13.4595C8.18719 12.7625 8.11166 11.9955 8.25884 11.2556C8.40602 10.5157 8.76931 9.836 9.30277 9.30254C9.83623 8.76908 10.5159 8.40579 11.2558 8.25861C11.9958 8.11143 12.7627 8.18697 13.4597 8.47567C14.1567 8.76438 14.7525 9.25329 15.1716 9.88057C15.5907 10.5079 15.8144 11.2453 15.8144 11.9998C15.8144 13.0114 15.4126 13.9816 14.6972 14.697C13.9819 15.4123 13.0117 15.8142 12 15.8142ZM15.8307 8.97268C15.6798 8.97264 15.5323 8.92786 15.4069 8.84401C15.2814 8.76016 15.1837 8.641 15.126 8.5016C15.0683 8.3622 15.0532 8.20881 15.0826 8.06084C15.1121 7.91286 15.1848 7.77695 15.2915 7.67027C15.3982 7.5636 15.5341 7.49096 15.6821 7.46154C15.8301 7.43212 15.9835 7.44724 16.1228 7.50498C16.2622 7.56273 16.3814 7.66051 16.4652 7.78597C16.549 7.91142 16.5937 8.05891 16.5937 8.20979C16.5937 8.30999 16.574 8.4092 16.5357 8.50177C16.4973 8.59434 16.4411 8.67845 16.3702 8.7493C16.2994 8.82014 16.2153 8.87633 16.1227 8.91466C16.0301 8.95299 15.9309 8.9727 15.8307 8.97268Z" fill="#232E40"/>
</g>
<defs>
<clipPath id="clip0_1_84">
<rect width="24" height="24" fill="white"/>
</clipPath>
</defs>
</svg>
