<svg width="184" height="48" viewBox="0 0 184 48" fill="none" xmlns="http://www.w3.org/2000/svg">
<path d="M38.14 9.86C40.0911 11.805 41.6167 14.1342 42.62 16.7L35.32 24L16.7 5.38C20.3222 3.9606 24.2797 3.62841 28.0878 4.42414C31.8959 5.21986 35.3893 7.10894 38.14 9.86V9.86ZM5.38 31.3C6.33826 33.7547 7.77217 35.9959 9.59933 37.8947C11.4265 39.7936 13.6109 41.3126 16.027 42.3645C18.4431 43.4164 21.0432 43.9805 23.678 44.0244C26.3128 44.0682 28.9303 43.591 31.38 42.62L12.68 24L5.38 31.3Z" fill="white"/>
<path opacity="0.3" d="M16.7 5.38L24 12.68L5.38 31.3C4.40905 28.8503 3.93178 26.2328 3.97563 23.598C4.01948 20.9632 4.58357 18.3631 5.6355 15.947C6.68743 13.5309 8.20645 11.3465 10.1053 9.51933C12.0041 7.69217 14.2453 6.25826 16.7 5.3V5.38ZM24 35.38L31.3 42.68C33.7547 41.7217 35.9959 40.2878 37.8947 38.4607C39.7936 36.6335 41.3126 34.4491 42.3645 32.033C43.4164 29.617 43.9805 27.0168 44.0244 24.382C44.0682 21.7472 43.591 19.1298 42.62 16.68L24 35.38Z" fill="white"/>
<path d="M61.896 33V16.032H73.872V18.768H64.896V23.232H72.696V25.92H64.896V30.264H73.872V33H61.896Z" fill="white"/>
<path d="M76.7319 33V16.032H80.8359L85.5399 24.6L90.1959 16.032H94.1799V33H91.1799V19.824L86.1159 28.992H84.8439L79.7319 19.824V33H76.7319Z" fill="white"/>
<path d="M111.802 33V16.032H114.802V23.28H122.722V16.032H125.698V33H122.722V26.016H114.802V33H111.802Z" fill="white"/>
<path d="M129.498 33V16.032H133.602L138.306 24.6L142.962 16.032H146.946V33H143.946V19.824L138.882 28.992H137.61L132.498 19.824V33H129.498Z" fill="white"/>
<path d="M158.028 33.192C156.284 33.192 154.796 32.824 153.564 32.088C152.348 31.352 151.412 30.328 150.756 29.016C150.116 27.704 149.796 26.208 149.796 24.528C149.796 22.816 150.124 21.312 150.78 20.016C151.436 18.704 152.38 17.68 153.612 16.944C154.844 16.192 156.332 15.816 158.076 15.816C159.82 15.816 161.3 16.184 162.516 16.92C163.748 17.656 164.692 18.68 165.348 19.992C166.004 21.288 166.332 22.784 166.332 24.48C166.332 26.16 166.004 27.656 165.348 28.968C164.708 30.28 163.764 31.312 162.516 32.064C161.284 32.816 159.788 33.192 158.028 33.192ZM158.076 30.408C159.292 30.408 160.284 30.128 161.052 29.568C161.82 29.008 162.38 28.28 162.732 27.384C163.1 26.488 163.284 25.536 163.284 24.528C163.284 23.76 163.18 23.024 162.972 22.32C162.78 21.616 162.468 20.984 162.036 20.424C161.62 19.864 161.084 19.424 160.428 19.104C159.772 18.768 158.988 18.6 158.076 18.6C156.876 18.6 155.884 18.88 155.1 19.44C154.332 20 153.764 20.728 153.396 21.624C153.028 22.52 152.844 23.488 152.844 24.528C152.844 25.552 153.028 26.512 153.396 27.408C153.764 28.304 154.332 29.032 155.1 29.592C155.884 30.136 156.876 30.408 158.076 30.408Z" fill="white"/>
<path d="M169.177 33V16.032H172.393L180.577 28.392V16.032H183.577V33H180.433L172.177 20.712V33H169.177Z" fill="white"/>
<path d="M108.942 33V16.032H96.9663V18.768H105.942V23.232H98.1423V25.92H105.942V30.264H96.9663V33H108.942Z" fill="white"/>
</svg>
