<svg width="24" height="24" viewBox="0 0 24 24" fill="none" xmlns="http://www.w3.org/2000/svg">
<path d="M12 1.25C17.9371 1.25 22.75 6.06294 22.75 12C22.75 17.9371 17.9371 22.75 12 22.75C6.06294 22.75 1.25 17.9371 1.25 12C1.25 6.06294 6.06294 1.25 12 1.25ZM11.8418 8.02734C11.3783 7.81275 10.8499 7.65125 10.2988 7.82129C9.93468 7.93366 9.61102 8.14418 9.35547 8.4248C8.98361 8.83333 8.86114 9.36772 8.80566 9.90137C8.75039 10.4332 8.74998 11.1204 8.75 11.957V12.043C8.74998 12.8796 8.7504 13.5668 8.80566 14.0986C8.86113 14.6323 8.98357 15.1666 9.35547 15.5752C9.61105 15.8559 9.9346 16.0673 10.2988 16.1797C10.8499 16.3497 11.3784 16.1873 11.8418 15.9727C12.2989 15.761 12.8502 15.4199 13.5068 15.0137L13.5889 14.9629C14.2704 14.5413 14.8392 14.1898 15.251 13.8623C15.6747 13.5252 16.0474 13.1265 16.1816 12.5713C16.2722 12.1968 16.2722 11.8032 16.1816 11.4287C16.0473 10.8736 15.6747 10.4748 15.251 10.1377C14.8392 9.81016 14.2705 9.45873 13.5889 9.03711L13.5068 8.98633C12.8502 8.58011 12.2989 8.23903 11.8418 8.02734Z" fill="white"/>
</svg>
