<svg width="36" height="36" viewBox="0 0 36 36" fill="none" xmlns="http://www.w3.org/2000/svg">
<rect width="36" height="36" rx="16" fill="#3B71FE" fill-opacity="0.08"/>
<path d="M26.3332 25.5H25.4998C24.2904 25.5 23.2315 24.7843 22.9998 23.8334C22.7682 24.7843 21.7093 25.5 20.4998 25.5C19.2904 25.5 18.2315 24.7843 17.9998 23.8334C17.7682 24.7843 16.7093 25.5 15.4998 25.5C14.2904 25.5 13.2315 24.7843 12.9998 23.8334C12.7682 24.7843 11.7093 25.5 10.4998 25.5H9.6665" stroke="#3B71FE" stroke-width="1.5" stroke-linecap="round" stroke-linejoin="round"/>
<path d="M23.8333 10.5L23.6125 10.5736C22.5125 10.9403 21.9624 11.1236 21.6478 11.5601C21.3333 11.9966 21.3333 12.5763 21.3333 13.7359V22.1667" stroke="#3B71FE" stroke-width="1.5" stroke-linecap="round" stroke-linejoin="round"/>
<path d="M17.1665 10.5L16.9457 10.5736C15.8457 10.9403 15.2957 11.1236 14.9811 11.5601C14.6665 11.9966 14.6665 12.5763 14.6665 13.7359L14.6665 22.1667" stroke="#3B71FE" stroke-width="1.5" stroke-linecap="round" stroke-linejoin="round"/>
<path d="M14.6665 13.8334H21.3332M14.6665 17.1667H21.3332M14.6665 20.5H21.3332" stroke="#3B71FE" stroke-width="1.5" stroke-linecap="round" stroke-linejoin="round"/>
</svg>
