<svg width="36" height="36" viewBox="0 0 36 36" fill="none" xmlns="http://www.w3.org/2000/svg">
<rect width="36" height="36" rx="16" fill="#3276FF" fill-opacity="0.08"/>
<path d="M9.66663 22.1667L26.3333 22.1667" stroke="#3276FF" stroke-width="1.5" stroke-linecap="round"/>
<path d="M18 13.8333C18 13.8333 19.25 12.972 19.25 11.9095C19.25 10.0302 16.75 10.0302 16.75 11.9095C16.75 12.972 18 13.8333 18 13.8333Z" stroke="#3276FF" stroke-width="1.5" stroke-linejoin="round"/>
<path d="M10.5 22.1667L11.0177 24.2376C11.2032 24.9796 11.8698 25.5001 12.6346 25.5001L23.3654 25.5001C24.1302 25.5001 24.7968 24.9796 24.9823 24.2376L25.5 22.1667" stroke="#3276FF" stroke-width="1.5" stroke-linecap="round"/>
<path d="M25.0833 20.0834C24.668 16.5641 21.6551 13.8334 18 13.8334C14.3448 13.8334 11.3319 16.5641 10.9166 20.0834" stroke="#3276FF" stroke-width="1.5" stroke-linecap="round"/>
</svg>
