<svg width="96" height="16" viewBox="0 0 96 16" fill="none" xmlns="http://www.w3.org/2000/svg">
<path d="M14.6285 6.00399L10.3246 5.3456L8.39557 1.23047C8.25148 0.923177 7.74807 0.923177 7.60399 1.23047L5.67549 5.3456L1.37167 6.00399C1.01817 6.05832 0.877004 6.48888 1.12492 6.74301L4.25158 9.95262L3.5125 14.4901C3.45358 14.8506 3.838 15.1211 4.15591 14.9441L8.00007 12.8164L11.8442 14.9446C12.1592 15.1199 12.5471 14.8547 12.4876 14.4907L11.7486 9.95321L14.8752 6.74359C15.1231 6.48888 14.9814 6.05832 14.6285 6.00399Z" fill="#FFC107"/>
<path d="M34.6285 6.00399L30.3246 5.3456L28.3956 1.23047C28.2515 0.923177 27.7481 0.923177 27.604 1.23047L25.6755 5.3456L21.3717 6.00399C21.0182 6.05832 20.877 6.48888 21.1249 6.74301L24.2516 9.95262L23.5125 14.4901C23.4536 14.8506 23.838 15.1211 24.1559 14.9441L28.0001 12.8164L31.8442 14.9446C32.1592 15.1199 32.5471 14.8547 32.4876 14.4907L31.7486 9.95321L34.8752 6.74359C35.1231 6.48888 34.9814 6.05832 34.6285 6.00399Z" fill="#FFC107"/>
<path d="M54.6285 6.00399L50.3246 5.3456L48.3956 1.23047C48.2515 0.923177 47.7481 0.923177 47.604 1.23047L45.6755 5.3456L41.3717 6.00399C41.0182 6.05832 40.877 6.48888 41.1249 6.74301L44.2516 9.95262L43.5125 14.4901C43.4536 14.8506 43.838 15.1211 44.1559 14.9441L48.0001 12.8164L51.8442 14.9446C52.1592 15.1199 52.5471 14.8547 52.4876 14.4907L51.7486 9.95321L54.8752 6.74359C55.1231 6.48888 54.9814 6.05832 54.6285 6.00399Z" fill="#FFC107"/>
<path d="M74.6285 6.00399L70.3246 5.3456L68.3956 1.23047C68.2515 0.923177 67.7481 0.923177 67.604 1.23047L65.6755 5.3456L61.3717 6.00399C61.0182 6.05832 60.877 6.48888 61.1249 6.74301L64.2516 9.95262L63.5125 14.4901C63.4536 14.8506 63.838 15.1211 64.1559 14.9441L68.0001 12.8164L71.8442 14.9446C72.1592 15.1199 72.5471 14.8547 72.4876 14.4907L71.7486 9.95321L74.8752 6.74359C75.1231 6.48888 74.9814 6.05832 74.6285 6.00399Z" fill="#FFC107"/>
<path d="M94.6285 6.00399L90.3246 5.3456L88.3956 1.23047C88.2515 0.923177 87.7481 0.923177 87.604 1.23047L85.6755 5.3456L81.3717 6.00399C81.0182 6.05832 80.877 6.48888 81.1249 6.74301L84.2516 9.95262L83.5125 14.4901C83.4536 14.8506 83.838 15.1211 84.1559 14.9441L88.0001 12.8164L91.8442 14.9446C92.1592 15.1199 92.5471 14.8547 92.4876 14.4907L91.7486 9.95321L94.8752 6.74359C95.1231 6.48888 94.9814 6.05832 94.6285 6.00399Z" fill="#777E90" fill-opacity="0.7"/>
</svg>
