<svg width="112" height="17" viewBox="0 0 112 17" fill="none" xmlns="http://www.w3.org/2000/svg">
<g clip-path="url(#clip0_0_568)">
<path d="M15.5753 6.22266L10.6567 5.47133L8.45199 0.775329C8.28733 0.424662 7.71199 0.424662 7.54733 0.775329L5.34333 5.47133L0.424659 6.22266C0.0206593 6.28466 -0.140674 6.776 0.142659 7.066L3.71599 10.7287L2.87133 15.9067C2.80399 16.318 3.24333 16.6267 3.60666 16.4247L7.99999 13.9967L12.3933 16.4253C12.7533 16.6253 13.1967 16.3227 13.1287 15.9073L12.284 10.7293L15.8573 7.06666C16.1407 6.776 15.9787 6.28466 15.5753 6.22266Z" fill="#FFC107"/>
</g>
<g clip-path="url(#clip1_0_568)">
<path d="M39.5753 6.22266L34.6567 5.47133L32.452 0.775329C32.2873 0.424662 31.712 0.424662 31.5473 0.775329L29.3433 5.47133L24.4247 6.22266C24.0207 6.28466 23.8593 6.776 24.1427 7.066L27.716 10.7287L26.8713 15.9067C26.804 16.318 27.2433 16.6267 27.6067 16.4247L32 13.9967L36.3933 16.4253C36.7533 16.6253 37.1967 16.3227 37.1287 15.9073L36.284 10.7293L39.8573 7.06666C40.1407 6.776 39.9787 6.28466 39.5753 6.22266Z" fill="#FFC107"/>
</g>
<g clip-path="url(#clip2_0_568)">
<path d="M63.5753 6.22266L58.6567 5.47133L56.452 0.775329C56.2873 0.424662 55.712 0.424662 55.5473 0.775329L53.3433 5.47133L48.4247 6.22266C48.0207 6.28466 47.8593 6.776 48.1427 7.066L51.716 10.7287L50.8713 15.9067C50.804 16.318 51.2433 16.6267 51.6067 16.4247L56 13.9967L60.3933 16.4253C60.7533 16.6253 61.1967 16.3227 61.1287 15.9073L60.284 10.7293L63.8573 7.06666C64.1407 6.776 63.9787 6.28466 63.5753 6.22266Z" fill="#FFC107"/>
</g>
<g clip-path="url(#clip3_0_568)">
<path d="M87.5753 6.22266L82.6567 5.47133L80.452 0.775329C80.2873 0.424662 79.712 0.424662 79.5473 0.775329L77.3433 5.47133L72.4247 6.22266C72.0207 6.28466 71.8593 6.776 72.1427 7.066L75.716 10.7287L74.8713 15.9067C74.804 16.318 75.2433 16.6267 75.6067 16.4247L80 13.9967L84.3933 16.4253C84.7533 16.6253 85.1967 16.3227 85.1287 15.9073L84.284 10.7293L87.8573 7.06666C88.1407 6.776 87.9787 6.28466 87.5753 6.22266Z" fill="#FFC107"/>
</g>
<g clip-path="url(#clip4_0_568)">
<path d="M111.575 6.22266L106.657 5.47133L104.452 0.775329C104.287 0.424662 103.712 0.424662 103.547 0.775329L101.343 5.47133L96.4247 6.22266C96.0207 6.28466 95.8593 6.776 96.1427 7.066L99.716 10.7287L98.8713 15.9067C98.804 16.318 99.2433 16.6267 99.6067 16.4247L104 13.9967L108.393 16.4253C108.753 16.6253 109.197 16.3227 109.129 15.9073L108.284 10.7293L111.857 7.06666C112.141 6.776 111.979 6.28466 111.575 6.22266Z" fill="#F8F8FA"/>
</g>
<defs>
<clipPath id="clip0_0_568">
<rect width="16" height="16" fill="white" transform="translate(0 0.5)"/>
</clipPath>
<clipPath id="clip1_0_568">
<rect width="16" height="16" fill="white" transform="translate(24 0.5)"/>
</clipPath>
<clipPath id="clip2_0_568">
<rect width="16" height="16" fill="white" transform="translate(48 0.5)"/>
</clipPath>
<clipPath id="clip3_0_568">
<rect width="16" height="16" fill="white" transform="translate(72 0.5)"/>
</clipPath>
<clipPath id="clip4_0_568">
<rect width="16" height="16" fill="white" transform="translate(96 0.5)"/>
</clipPath>
</defs>
</svg>
