<svg width="40" height="36" viewBox="0 0 40 36" fill="none" xmlns="http://www.w3.org/2000/svg">
<rect width="40" height="36" rx="16" fill="#3B71FE" fill-opacity="0.08"/>
<path d="M10 16.3333C10 13.1906 10 11.6192 11.1716 10.6429C12.3431 9.66663 14.2288 9.66663 18 9.66663H22C25.7712 9.66663 27.6569 9.66663 28.8284 10.6429C30 11.6192 30 13.1906 30 16.3333C30 19.476 30 21.0473 28.8284 22.0236C27.6569 23 25.7712 23 22 23H18C14.2288 23 12.3431 23 11.1716 22.0236C10 21.0473 10 19.476 10 16.3333Z" stroke="#3B71FE" stroke-width="1.5" stroke-linecap="round"/>
<path d="M24 26.3333C22.8233 25.8033 21.4571 25.5 20 25.5C18.5429 25.5 17.1767 25.8033 16 26.3333" stroke="#3B71FE" stroke-width="1.5" stroke-linecap="round"/>
</svg>
